<svg xmlns="http://www.w3.org/2000/svg" viewBox="0 0 1198.34 573.66" role="img" aria-label="HOKO Logo">
 <title>HOKO</title>
 <rect width="100%" height="100%" fill="#F7F2EA"/>
 <g transform="translate(59.65 457.34) scale(0.1 -0.1)" fill="#0C0C0C">
  <path d="M4025 3003 c-198 -24 -423 -115 -595 -238 -95 -69 -232 -208 -302 -306 -100 -140 -179 -326 -214 -504 -25 -123 -25 -386 0 -503 110 -520 500 -913 1018 -1023 149 -32 419 -32 565 -1 347 75 634 269 827 560 98 147 167 319 197 492 19 111 17 366 -4 472 -109 549 -549 970 -1092 1048 -66 9 -334 11 -400 3z m343 -552 c285 -59 509 -273 588 -562 26 -92 24 -278 -4 -381 -71 -263 -272 -464 -538 -539 -108 -31 -284 -31 -397 -1 -261 71 -468 279 -539 541 -27 100 -29 276 -5 376 61 245 255 458 492 540 133 46 264 54 403 26z"/>
  <path d="M8885 3003 c-301 -39 -584 -184 -792 -407 -317 -339 -428 -812 -298 -1261 69 -238 227 -476 414 -627 275 -222 585 -323 931 -304 340 17 616 135 851 363 252 244 381 533 396 888 28 658 -432 1228 -1081 1340 -82 14 -338 19 -421 8z m298 -544 c166 -26 293 -93 423 -223 76 -77 98 -107 137 -186 26 -52 54 -122 62 -155 98 -380 -112 -776 -482 -908 -397 -143 -844 74 -977 473 -93 279 -24 574 183 781 176 175 415 255 654 218z"/>
  <path d="M406 2961 c-3 -5 -5 -571 -3 -1257 l2 -1249 288 -3 287 -2 1 52 c1 29 2 253 3 498 l2 445 560 0 559 0 3 -497 2 -498 290 0 290 0 -2 1258 -3 1257 -287 3 -288 2 0 -500 0 -500 -562 2 -562 3 -2 445 c0 245 -2 469 -3 498 l-1 52 -284 0 c-157 0 -287 -4 -290 -9z"/>
  <path d="M5770 1710 l0 -1260 290 0 290 0 2 537 3 536 180 -203 c99 -113 203 -229 230 -260 28 -31 160 -180 295 -333 l245 -277 373 0 373 0 -28 34 c-26 31 -228 261 -840 957 l-251 286 155 174 c543 609 934 1043 945 1047 4 2 8 8 8 13 0 5 -151 9 -367 9 l-368 0 -296 -333 c-163 -182 -377 -423 -475 -535 l-179 -202 -3 535 -2 535 -290 0 -290 0 0 -1260z"/>
 </g>
</svg>
