<svg xmlns="http://www.w3.org/2000/svg" viewBox="241.20 -11.00 280.70 280.70" role="img" aria-label="HOKO Mark">
 <title>HOKO Mark</title>
 <g transform="translate(-40.212141 300.892589) scale(0.1 -0.1)" fill="#0C0C0C">
  <path d="M4025 3003 c-198 -24 -423 -115 -595 -238 -95 -69 -232 -208 -302 -306 -100 -140 -179 -326 -214 -504 -25 -123 -25 -386 0 -503 110 -520 500 -913 1018 -1023 149 -32 419 -32 565 -1 347 75 634 269 827 560 98 147 167 319 197 492 19 111 17 366 -4 472 -109 549 -549 970 -1092 1048 -66 9 -334 11 -400 3z m343 -552 c285 -59 509 -273 588 -562 26 -92 24 -278 -4 -381 -71 -263 -272 -464 -538 -539 -108 -31 -284 -31 -397 -1 -261 71 -468 279 -539 541 -27 100 -29 276 -5 376 61 245 255 458 492 540 133 46 264 54 403 26z"/>
 </g>
</svg>
